<svg width="800" height="258" xmlns="http://www.w3.org/2000/svg" viewbox="0 0 800 258"><style type="text/css">@import url('https://fonts.googleapis.com/css2?family=Ubuntu');</style><path fill="#818081" d="M160, 41 v101 q0,10,10,10 h238 q10,0,10,-10 v-101 h258"></path><rect x="148" y="49" width="22" height="15" rx="1" fill="#F5C51F"></rect><text x="176" y="61.5" fill="white" text-anchor="start" font-size="medium" font-family="Ubuntu">Quaternion</text><rect x="408" y="49" width="22" height="15" rx="1" fill="#186BDD"></rect><text x="402" y="61.5" fill="white" text-anchor="end" font-size="medium" font-family="Ubuntu">X</text><rect x="408" y="70" width="22" height="15" rx="1" fill="#186BDD"></rect><text x="402" y="82.5" fill="white" text-anchor="end" font-size="medium" font-family="Ubuntu">Y</text><rect x="408" y="91" width="22" height="15" rx="1" fill="#186BDD"></rect><text x="402" y="103.5" fill="white" text-anchor="end" font-size="medium" font-family="Ubuntu">Z</text><rect x="408" y="112" width="22" height="15" rx="1" fill="#186BDD"></rect><text x="402" y="124.5" fill="white" text-anchor="end" font-size="medium" font-family="Ubuntu">W</text><path d="M160, 41 v-31 q0,-10,10,-10 h238 q10,0,10,10 v31 h-258" fill="#525152"></path><text x="289" y="29.5" fill="white" text-anchor="middle" font-size="medium" font-family="Ubuntu">Quaternion Split</text></svg>