<svg width="800" height="267" xmlns="http://www.w3.org/2000/svg" viewbox="0 0 800 267"><style type="text/css">@import url('https://fonts.googleapis.com/css2?family=Ubuntu');</style><path fill="#818081" d="M160, 41 v76 q0,10,10,10 h247 q10,0,10,-10 v-76 h267"></path><path d="M165,49h-16.465c-0.552,0,-1,0.448,-1,1v16c0,0.552,0.448,1,1,1h16.465c0.334,0,0.647,-0.167,0.832,-0.445l5.333,-8c0.224,-0.336,0.224,-0.774,0,-1.11l-5.333,-8c-0.185,-0.278,-0.498,-0.445,-0.832,-0.445z" fill="#F55C1A"></path><text x="176" y="63" fill="white" text-anchor="start" font-size="medium" font-family="Ubuntu"></text><rect x="148" y="73" width="22" height="15" rx="1" fill="#F5C51F"></rect><text x="176" y="85.5" fill="white" text-anchor="start" font-size="medium" font-family="Ubuntu">Target</text><rect x="148" y="94" width="22" height="15" rx="1" fill="#F5C51F"></rect><text x="176" y="106.5" fill="white" text-anchor="start" font-size="medium" font-family="Ubuntu">Audio</text><path d="M434,49h-16.465c-0.552,0,-1,0.448,-1,1v16c0,0.552,0.448,1,1,1h16.465c0.334,0,0.647,-0.167,0.832,-0.445l5.333,-8c0.224,-0.336,0.224,-0.774,0,-1.11l-5.333,-8c-0.185,-0.278,-0.498,-0.445,-0.832,-0.445z" fill="#F55C1A"></path><text x="411" y="63" fill="white" text-anchor="end" font-size="medium" font-family="Ubuntu"></text><path d="M160, 41 v-31 q0,-10,10,-10 h247 q10,0,10,10 v31 h-267" fill="#525152"></path><text x="293.5" y="29.5" fill="white" text-anchor="middle" font-size="medium" font-family="Ubuntu">Audio Player Play</text></svg>