<svg width="800" height="267" xmlns="http://www.w3.org/2000/svg" viewbox="0 0 800 267"><style type="text/css">@import url('https://fonts.googleapis.com/css2?family=Ubuntu');</style><path fill="#818081" d="M160, 41 v76 q0,10,10,10 h247 q10,0,10,-10 v-76 h267"></path><rect x="148" y="49" width="22" height="15" rx="1" fill="#F5C51F"></rect><text x="176" y="61.5" fill="white" text-anchor="start" font-size="medium" font-family="Ubuntu">LocalPoint</text><rect x="148" y="70" width="22" height="15" rx="1" fill="#F5C51F"></rect><text x="176" y="82.5" fill="white" text-anchor="start" font-size="medium" font-family="Ubuntu">WorldOrigin</text><rect x="148" y="91" width="22" height="15" rx="1" fill="#F5C51F"></rect><text x="176" y="103.5" fill="white" text-anchor="start" font-size="medium" font-family="Ubuntu">WorldOrientation</text><rect x="417" y="49" width="22" height="15" rx="1" fill="#F5C51F"></rect><text x="411" y="61.5" fill="white" text-anchor="end" font-size="medium" font-family="Ubuntu">Result</text><path d="M160, 41 v-31 q0,-10,10,-10 h247 q10,0,10,10 v31 h-267" fill="#525152"></path><text x="293.5" y="29.5" fill="white" text-anchor="middle" font-size="medium" font-family="Ubuntu">Vector3 Transform</text></svg>