<svg width="800" height="159" xmlns="http://www.w3.org/2000/svg" viewbox="0 0 800 159"><style type="text/css">@import url('https://fonts.googleapis.com/css2?family=Ubuntu');</style><path fill="#818081" d="M160, 41 v76 q0,10,10,10 h139 q10,0,10,-10 v-76 h159"></path><rect x="148" y="49" width="22" height="15" rx="1" fill="#F6EEE8"></rect><text x="176" y="61.5" fill="white" text-anchor="start" font-size="medium" font-family="Ubuntu">Value</text><rect x="148" y="70" width="22" height="15" rx="1" fill="#F6EEE8"></rect><text x="176" y="82.5" fill="white" text-anchor="start" font-size="medium" font-family="Ubuntu">Min</text><rect x="148" y="91" width="22" height="15" rx="1" fill="#F6EEE8"></rect><text x="176" y="103.5" fill="white" text-anchor="start" font-size="medium" font-family="Ubuntu">Max</text><rect x="309" y="49" width="22" height="15" rx="1" fill="#F6EEE8"></rect><text x="303" y="61.5" fill="white" text-anchor="end" font-size="medium" font-family="Ubuntu">Result</text><path d="M160, 41 v-31 q0,-10,10,-10 h139 q10,0,10,10 v31 h-159" fill="#525152"></path><text x="239.5" y="29.5" fill="white" text-anchor="middle" font-size="medium" font-family="Ubuntu">Clamp</text></svg>